<svg xmlns="http://www.w3.org/2000/svg" version="1.1" xmlns:xlink="http://www.w3.org/1999/xlink" xmlns:svgjs="http://svgjs.dev/svgjs" width="1080" height="720" preserveAspectRatio="none" viewBox="0 0 1080 720"><g mask="url(&quot;#SvgjsMask1147&quot;)" fill="none"><path d="M256.05 793.16C376.42 740.08 383.56 372.42 555.75 360.62 727.93 348.82 705.59 450.62 855.44 450.62 1005.29 450.62 1076.92 361.58 1155.14 360.62" stroke="rgba(224, 175, 128, 1)" stroke-width="2"></path><path d="M417.4 768.62C499.77 746.66 431.88 549.22 650.02 519.31 868.17 489.4 978.95 242.65 1115.27 231.31" stroke="rgba(224, 175, 128, 1)" stroke-width="2"></path><path d="M342.7 859.53C504.78 809.85 555.38 348.78 785.87 346.29 1016.36 343.8 1101.03 596.21 1229.04 605.49" stroke="rgba(224, 175, 128, 1)" stroke-width="2"></path><path d="M71.33 846.58C224.55 744.13 192.89 227.32 410.8 192.1 628.71 156.88 580.53 282.1 750.27 282.1 920 282.1 1001.94 192.86 1089.74 192.1" stroke="rgba(224, 175, 128, 1)" stroke-width="2"></path><path d="M222.88 810.08C338.23 765.96 354.06 424.92 521.22 416.35 688.38 407.78 670.39 506.35 819.56 506.35 968.73 506.35 1040 417.32 1117.9 416.35" stroke="rgba(224, 175, 128, 1)" stroke-width="2"></path></g><defs><mask id="SvgjsMask1147"><rect width="1080" height="720" fill="#ffffff"></rect></mask></defs></svg>